<svg width="44" height="72" xmlns="http://www.w3.org/2000/svg" xmlns:xlink="http://www.w3.org/1999/xlink" xml:space="preserve" overflow="hidden"><defs><clipPath id="clip0"><rect x="1140" y="188" width="44" height="72"/></clipPath></defs><g clip-path="url(#clip0)" transform="translate(-1140 -188)"><path d="M21.9102 22.0479C19.9622 22.0479 18.3782 20.4639 18.3782 18.5159 18.3782 16.5679 19.9622 14.9839 21.9102 14.9839 23.8582 14.9839 25.4422 16.5679 25.4422 18.5159 25.4422 20.4639 23.8582 22.0479 21.9102 22.0479M21.9102 10.7632C17.6403 10.7632 14.1673 14.2362 14.1673 18.5061 14.1673 22.776 17.6403 26.2489 21.9102 26.2489 26.1801 26.2489 29.653 22.776 29.653 18.5061 29.653 14.246 26.1801 10.7632 21.9102 10.7632M9.66133 51.3566 14.4428 51.3566C15.5546 51.3566 16.4597 50.4514 16.4597 49.3397 16.4597 48.228 15.5546 47.3228 14.4428 47.3228L9.66133 47.3228C8.54959 47.3228 7.64446 48.228 7.64446 49.3397 7.64446 50.4514 8.54959 51.3566 9.66133 51.3566ZM34.0803 52.1437C35.6249 52.1437 36.8843 50.8843 36.8843 49.3397 36.8843 47.7951 35.6249 46.5358 34.0803 46.5358 32.5357 46.5358 31.2764 47.7951 31.2764 49.3397 31.2764 50.8843 32.5258 52.1437 34.0803 52.1437ZM35.6446 0 8.17573 0C3.66973 0 0 3.66973 0 8.17573L0 51.15C0 55.0755 2.78427 58.3615 6.48352 59.1486L6.48352 62.8971C6.48352 64.9139 8.1167 66.5471 10.1336 66.5471L13.1638 66.5471 13.1638 69.0067C13.1638 70.2562 14.1772 71.2597 15.4168 71.2597 16.6663 71.2597 17.6698 70.2464 17.6698 69.0067L17.6698 66.5471 26.5146 66.5471 26.5146 69.1248C26.5146 70.3743 27.5279 71.3778 28.7676 71.3778 30.017 71.3778 31.0206 70.3644 31.0206 69.1248L31.0206 66.5471 33.6769 66.5471C35.684 66.5471 37.327 64.9139 37.327 62.8971L37.327 59.1486C41.0262 58.3714 43.8105 55.0755 43.8105 51.15L43.8105 8.17573C43.8203 3.66973 40.1506 0 35.6446 0ZM33.4703 62.6708 10.35 62.6708 10.35 59.3159 33.4605 59.3159 33.4605 62.6708ZM39.3635 51.1401C39.3635 53.1373 37.7796 54.7508 35.8119 54.8394L8.17573 54.8591C6.12934 54.8591 4.45681 53.1964 4.45681 51.15L4.45681 8.17573C4.45681 6.12934 6.12934 4.45681 8.17573 4.45681L35.6446 4.45681C37.691 4.45681 39.3635 6.1195 39.3635 8.17573L39.3635 51.1401Z" fill="#FFFFFF" transform="matrix(1 0 0 1.00872 1140.09 188)"/></g></svg>