<svg width="60" height="60" xmlns="http://www.w3.org/2000/svg" xmlns:xlink="http://www.w3.org/1999/xlink" xml:space="preserve" overflow="hidden"><defs><clipPath id="clip0"><rect x="88" y="338" width="60" height="60"/></clipPath></defs><g clip-path="url(#clip0)" transform="translate(-88 -338)"><path d="M130.603 353.584 130.813 353.584C133.869 353.584 136.366 351.098 136.366 348.042 136.366 347.183 136.166 346.314 135.776 345.545L132.621 339.263C132.261 338.544 131.522 338.085 130.713 338.085 129.904 338.085 129.165 338.544 128.806 339.263L125.65 345.545C125.26 346.314 125.061 347.173 125.061 348.042 125.061 351.088 127.547 353.584 130.603 353.584ZM129.465 347.462 130.703 344.996 131.951 347.462C132.041 347.642 132.081 347.842 132.081 348.032 132.081 348.731 131.512 349.3 130.813 349.3L130.603 349.3C129.904 349.3 129.325 348.731 129.325 348.032 129.335 347.832 129.385 347.632 129.465 347.462ZM105.007 353.584 105.217 353.584C108.273 353.584 110.77 351.098 110.77 348.042 110.77 347.183 110.57 346.314 110.18 345.545L107.025 339.263C106.655 338.544 105.916 338.085 105.107 338.085 104.298 338.085 103.559 338.544 103.2 339.263L100.044 345.535C99.6545 346.304 99.4547 347.163 99.4547 348.032 99.4547 351.088 101.941 353.584 105.007 353.584ZM103.869 347.462 105.107 344.996 106.346 347.462C106.435 347.642 106.485 347.842 106.485 348.032 106.485 348.731 105.916 349.3 105.217 349.3L105.007 349.3C104.308 349.3 103.739 348.731 103.739 348.032 103.729 347.832 103.779 347.632 103.869 347.462ZM97.4574 356.311C97.0879 355.592 96.3489 355.132 95.5499 355.132 94.741 355.132 94.002 355.592 93.6425 356.311L88.7989 365.958C88.2696 366.976 88 368.125 88 369.273 88 373.338 91.3056 376.653 95.3802 376.653L95.6997 376.653C99.7643 376.653 103.08 373.338 103.08 369.273 103.08 368.125 102.81 366.986 102.291 365.958L97.4574 356.311ZM95.6997 372.369 95.3802 372.369C93.6724 372.369 92.2743 370.981 92.2743 369.263 92.2743 368.784 92.3941 368.295 92.6039 367.875L95.5399 362.033 98.476 367.875C98.6957 368.305 98.8056 368.784 98.8056 369.263 98.8056 370.981 97.4174 372.369 95.6997 372.369ZM147.211 365.958 142.368 356.311C142.008 355.592 141.269 355.132 140.45 355.132 139.641 355.132 138.902 355.592 138.543 356.311L133.699 365.958C133.18 366.986 132.91 368.125 132.91 369.273 132.91 373.338 136.226 376.653 140.29 376.653L140.62 376.653C144.694 376.653 148 373.338 148 369.273 148 368.125 147.73 366.976 147.211 365.958ZM140.62 372.369 140.29 372.369C138.583 372.369 137.184 370.981 137.184 369.263 137.184 368.784 137.294 368.295 137.514 367.875L140.45 362.033 143.386 367.875C143.596 368.305 143.716 368.784 143.716 369.263 143.726 370.981 142.328 372.369 140.62 372.369ZM119.848 356.43C119.488 355.711 118.749 355.252 117.94 355.252 117.131 355.252 116.392 355.711 116.033 356.43L105.237 377.902C104.278 379.819 103.769 381.956 103.769 384.104 103.769 391.723 109.961 397.915 117.581 397.915L118.3 397.915C125.919 397.915 132.111 391.723 132.111 384.104 132.111 381.966 131.602 379.819 130.643 377.902L119.848 356.43ZM118.3 393.641 117.581 393.641C112.328 393.641 108.043 389.367 108.043 384.104 108.043 382.626 108.393 381.147 109.062 379.819L117.94 362.143 126.818 379.819C127.487 381.138 127.837 382.626 127.837 384.104 127.837 389.367 123.563 393.641 118.3 393.641Z" fill="#FFFFFF"/></g></svg>