<svg width="68" height="64" xmlns="http://www.w3.org/2000/svg" xmlns:xlink="http://www.w3.org/1999/xlink" xml:space="preserve" overflow="hidden"><defs><clipPath id="clip0"><rect x="233" y="192" width="68" height="64"/></clipPath></defs><g clip-path="url(#clip0)" transform="translate(-233 -192)"><path d="M60.8135 4.50799C59.7087 4.50799 58.6631 4.77433 57.7359 5.24782 56.3055 2.15042 53.1786 0 49.5485 0 46.8654 0 44.4486 1.18372 42.7914 3.05794 41.1441 1.18372 38.7273 0 36.0442 0 33.3513 0 30.9345 1.18372 29.2872 3.05794 27.63 1.18372 25.2132 0 22.5202 0 19.8273 0 17.4105 1.18372 15.7632 3.05794 14.1158 1.18372 11.6991 0 9.00612 0 4.04437 0 0 4.04437 0 9.00612L0 54.0565C0 59.0281 4.04437 63.0626 9.00612 63.0626 11.6892 63.0626 14.106 61.8789 15.7632 60.0047 17.4105 61.8789 19.8273 63.0626 22.5202 63.0626 25.2132 63.0626 27.6201 61.8789 29.2773 60.0047 30.9246 61.8789 33.3414 63.0626 36.0344 63.0626 38.7175 63.0626 41.1342 61.8789 42.7914 60.0047 44.4388 61.8789 46.8555 63.0626 49.5485 63.0626 54.5201 63.0626 58.5645 59.0182 58.5645 54.0565L58.5645 17.6374C59.2648 17.884 60.0244 18.0221 60.8135 18.0221 64.5422 18.0221 67.5706 14.9938 67.5706 11.2651 67.5706 7.53634 64.5422 4.50799 60.8135 4.50799ZM13.5141 54.0565C13.5141 56.5423 11.4919 58.5645 9.00612 58.5645 6.52032 58.5645 4.49813 56.5423 4.49813 54.0565L4.49813 9.00612C4.49813 6.52032 6.52032 4.49813 9.00612 4.49813 11.4919 4.49813 13.5141 6.52032 13.5141 9.00612L13.5141 54.0565ZM27.0282 54.0565C27.0282 56.5423 25.0061 58.5645 22.5202 58.5645 20.0344 58.5645 18.0122 56.5423 18.0122 54.0565L18.0122 9.00612C18.0122 6.52032 20.0344 4.49813 22.5202 4.49813 25.0061 4.49813 27.0282 6.52032 27.0282 9.00612L27.0282 54.0565ZM40.5424 54.0565C40.5424 56.5423 38.5202 58.5645 36.0344 58.5645 33.5485 58.5645 31.5264 56.5423 31.5264 54.0565L31.5264 9.00612C31.5264 6.52032 33.5485 4.49813 36.0344 4.49813 38.5202 4.49813 40.5424 6.52032 40.5424 9.00612L40.5424 54.0565ZM54.0565 54.0565C54.0565 56.5423 52.0343 58.5645 49.5485 58.5645 47.0627 58.5645 45.0504 56.5423 45.0504 54.0565L45.0504 9.00612C45.0504 6.52032 47.0725 4.49813 49.5485 4.49813 52.0343 4.49813 54.0565 6.52032 54.0565 9.00612L54.0565 54.0565ZM60.8135 13.5141C59.5706 13.5141 58.5645 12.4981 58.5645 11.2552 58.5645 10.0123 59.5706 9.00612 60.8135 9.00612 62.0564 9.00612 63.0725 10.0221 63.0725 11.2552 63.0725 12.508 62.0564 13.5141 60.8135 13.5141Z" fill="#FFFFFF" transform="matrix(1 0 0 1.01471 233.215 192)"/></g></svg>