<svg width="66" height="63" xmlns="http://www.w3.org/2000/svg" xmlns:xlink="http://www.w3.org/1999/xlink" xml:space="preserve" overflow="hidden"><defs><clipPath id="clip0"><rect x="1129" y="193" width="66" height="63"/></clipPath></defs><g clip-path="url(#clip0)" transform="translate(-1129 -193)"><path d="M57.0369 21.5122C56.8889 21.5122 56.7507 21.5221 56.6027 21.5319L56.6027 17.1407 57.254 17.1407C58.4776 17.1407 59.4743 16.144 59.4743 14.9204 59.4743 13.6968 58.4776 12.7001 57.254 12.7001L56.6027 12.7001 56.6027 12.631 40.1824 12.631C40.9126 11.3876 41.3468 9.93705 41.3468 8.38778 41.3468 3.74983 37.597 0 32.959 0 28.3211 0 24.5713 3.74983 24.5713 8.38778 24.5713 9.93705 25.0055 11.3876 25.7357 12.631L9.31537 12.631 9.31537 12.71 8.66408 12.71C7.44045 12.71 6.44379 13.7066 6.44379 14.9302 6.44379 16.1539 7.44045 17.1505 8.66408 17.1505L9.31537 17.1505 9.31537 21.5418C9.16735 21.5221 9.0292 21.5122 8.88118 21.5122 3.97679 21.5122 0 25.489 0 30.3934 0 35.2978 3.97679 39.2745 8.88118 39.2745 9.0292 39.2745 9.16735 39.2647 9.31537 39.2548L9.31537 46.6953C9.31537 55.1817 16.1637 62.0597 24.6107 62.0597 28.1829 62.0597 37.745 62.0597 41.3172 62.0597 49.7642 62.0597 56.6126 55.1817 56.6126 46.6953L56.6126 39.2548C56.7507 39.2647 56.8988 39.2745 57.0468 39.2745 61.9512 39.2745 65.9279 35.2978 65.9279 30.3934 65.9279 25.489 61.9413 21.5122 57.0369 21.5122ZM32.959 4.44059C35.1399 4.44059 36.9062 6.20696 36.9062 8.38778 36.9062 10.5686 35.1399 12.335 32.959 12.335 30.7782 12.335 29.0119 10.5686 29.0119 8.38778 29.0119 6.20696 30.7782 4.44059 32.959 4.44059ZM9.31537 34.8142C9.16735 34.8241 9.0292 34.834 8.88118 34.834 6.43392 34.834 4.44059 32.8505 4.44059 30.3934 4.44059 27.9362 6.43392 25.9528 8.88118 25.9528 9.0292 25.9528 9.16735 25.9626 9.31537 25.9725L9.31537 34.8142ZM40.7646 57.6685 25.1535 57.6685C18.8182 57.6685 13.6869 52.7542 13.6869 46.6953 13.6869 42.9948 13.6869 18.986 13.6869 17.1407L52.2411 17.1407C52.2411 18.986 52.2411 43.2908 52.2411 46.6953 52.2411 52.7542 47.0998 57.6685 40.7646 57.6685ZM57.0369 34.834C56.8889 34.834 56.7507 34.8241 56.6027 34.8142L56.6027 25.9824C56.7409 25.9725 56.8889 25.9626 57.0369 25.9626 59.4842 25.9626 61.4775 27.9461 61.4775 30.4032 61.4775 32.8505 59.494 34.834 57.0369 34.834Z" fill="#FFFFFF" transform="matrix(1 0 0 1.01515 1129.04 193)"/></g></svg>