<svg width="56" height="59" xmlns="http://www.w3.org/2000/svg" xmlns:xlink="http://www.w3.org/1999/xlink" xml:space="preserve" overflow="hidden"><defs><clipPath id="clip0"><rect x="836" y="195" width="56" height="59"/></clipPath></defs><g clip-path="url(#clip0)" transform="translate(-836 -195)"><path d="M12.1272 47.0259 43.5694 47.0259C45.5824 47.0259 47.2223 45.386 47.2223 43.373L47.2223 27.4752C47.2223 25.4621 45.5824 23.8223 43.5694 23.8223L12.1272 23.8223C10.1142 23.8223 8.47429 25.4621 8.47429 27.4752L8.47429 43.373C8.47429 45.386 10.1043 47.0259 12.1272 47.0259ZM12.3432 27.701 43.3436 27.701 43.3436 43.157 12.3432 43.157 12.3432 27.701ZM10.2811 19.9632C10.2811 18.8928 11.1452 18.0287 12.2155 18.0287L43.3141 18.0287C44.3844 18.0287 45.2486 18.8928 45.2486 19.9632 45.2486 21.0335 44.3844 21.8976 43.3141 21.8976L12.2254 21.8976C11.155 21.8976 10.2811 21.0335 10.2811 19.9632ZM10.1927 5.95066C8.70996 5.95066 7.50215 7.15847 7.50215 8.64122 7.50215 10.124 8.70996 11.3318 10.1927 11.3318 11.6755 11.3318 12.8833 10.124 12.8833 8.64122 12.8833 7.15847 11.6755 5.95066 10.1927 5.95066ZM10.1927 9.27949C9.83921 9.27949 9.55444 8.99472 9.55444 8.64122 9.55444 8.28771 9.83921 8.00295 10.1927 8.00295 10.5462 8.00295 10.831 8.28771 10.831 8.64122 10.831 8.99472 10.5364 9.27949 10.1927 9.27949ZM24.6275 5.95066C23.1447 5.95066 21.9369 7.15847 21.9369 8.64122 21.9369 10.124 23.1447 11.3318 24.6275 11.3318 26.1102 11.3318 27.318 10.124 27.318 8.64122 27.318 7.15847 26.1102 5.95066 24.6275 5.95066ZM24.6275 9.27949C24.274 9.27949 23.9892 8.99472 23.9892 8.64122 23.9892 8.28771 24.274 8.00295 24.6275 8.00295 24.981 8.00295 25.2657 8.28771 25.2657 8.64122 25.2657 8.99472 24.981 9.27949 24.6275 9.27949ZM31.3146 5.95066C29.8318 5.95066 28.624 7.15847 28.624 8.64122 28.624 10.124 29.8318 11.3318 31.3146 11.3318 32.7974 11.3318 34.0052 10.124 34.0052 8.64122 34.0052 7.15847 32.7974 5.95066 31.3146 5.95066ZM31.3146 9.27949C30.9611 9.27949 30.6763 8.99472 30.6763 8.64122 30.6763 8.28771 30.9611 8.00295 31.3146 8.00295 31.6681 8.00295 31.9529 8.28771 31.9529 8.64122 31.9529 8.99472 31.6583 9.27949 31.3146 9.27949ZM48.4497 8.64122C48.4497 10.124 47.2419 11.3318 45.7592 11.3318 44.2764 11.3318 43.0686 10.124 43.0686 8.64122 43.0686 7.15847 44.2764 5.95066 45.7592 5.95066 47.2419 5.95066 48.4497 7.15847 48.4497 8.64122ZM39.0721 5.95066C37.5893 5.95066 36.3815 7.15847 36.3815 8.64122 36.3815 10.124 37.5893 11.3318 39.0721 11.3318 40.5548 11.3318 41.7626 10.124 41.7626 8.64122 41.7626 7.15847 40.5548 5.95066 39.0721 5.95066ZM39.0721 9.27949C38.7186 9.27949 38.4338 8.99472 38.4338 8.64122 38.4338 8.28771 38.7186 8.00295 39.0721 8.00295 39.4256 8.00295 39.7103 8.28771 39.7103 8.64122 39.7103 8.99472 39.4157 9.27949 39.0721 9.27949ZM16.87 5.95066C15.3873 5.95066 14.1795 7.15847 14.1795 8.64122 14.1795 10.124 15.3873 11.3318 16.87 11.3318 18.3528 11.3318 19.5606 10.124 19.5606 8.64122 19.5704 7.15847 18.3626 5.95066 16.87 5.95066ZM16.87 9.27949C16.5165 9.27949 16.2317 8.99472 16.2317 8.64122 16.2317 8.28771 16.5165 8.00295 16.87 8.00295 17.2235 8.00295 17.5083 8.28771 17.5083 8.64122 17.5083 8.99472 17.2235 9.27949 16.87 9.27949ZM47.5758 0 8.19934 0C3.67252 0 0 3.68234 0 8.19934L0 47.3009C0 51.7688 3.59396 55.4118 8.05205 55.4904 8.05205 55.5395 8.04223 55.5788 8.04223 55.6279 8.04223 56.9142 9.0831 57.9649 10.3793 57.9649 11.6656 57.9649 12.7163 56.924 12.7163 55.6279 12.7163 55.5788 12.7065 55.5395 12.7065 55.4904L43.1079 55.4904C43.1079 55.5395 43.0981 55.5788 43.0981 55.6279 43.0981 56.9142 44.139 57.9649 45.4351 57.9649 46.7215 57.9649 47.7722 56.924 47.7722 55.6279 47.7722 55.5788 47.7624 55.5395 47.7624 55.4904 52.2106 55.4118 55.8144 51.7688 55.8144 47.3009L55.8144 8.19934C55.7751 3.68234 52.0928 0 47.5758 0ZM51.3072 47.3009C51.3072 49.3041 49.7165 50.9243 47.7427 51.0127L8.19934 51.0225C6.14705 51.0225 4.4679 49.3531 4.4679 47.3009L4.4679 15.9568 51.2974 15.9568 51.2974 47.3009ZM51.3072 12.9815 4.47772 12.9815 4.47772 8.19934C4.47772 6.14705 6.14705 4.4679 8.20916 4.4679L47.5856 4.4679C49.6379 4.4679 51.3171 6.13723 51.3171 8.19934L51.3171 12.9815Z" fill="#FFFFFF" transform="matrix(1 0 0 1.01786 836.112 195)"/></g></svg>