<svg width="40" height="56" xmlns="http://www.w3.org/2000/svg" xmlns:xlink="http://www.w3.org/1999/xlink" xml:space="preserve" overflow="hidden"><defs><clipPath id="clip0"><rect x="98" y="196" width="40" height="56"/></clipPath></defs><g clip-path="url(#clip0)" transform="translate(-98 -196)"><path d="M136.84 209.122C136.473 208.666 135.69 207.853 135.075 207.228L135.571 205.452C135.61 205.294 135.64 205.135 135.64 204.966 135.65 204.599 135.63 202.675 134.252 201.336 133.666 200.771 132.625 200.116 130.959 200.215 130.155 200.275 129.054 200.483 128.37 201.177 128.34 201.207 128.32 201.227 128.3 201.257 128.211 201.356 128.052 201.525 127.646 202.249 126.346 201.614 124.442 200.88 121.982 200.473 121.992 199.352 121.992 198.232 121.972 197.676 121.962 196.446 119.394 196 117.995 196 116.537 196 114.028 196.387 114.028 197.676 114.028 198.252 114.028 199.372 114.028 200.473 111.558 200.88 109.654 201.614 108.354 202.249 107.938 201.525 107.789 201.356 107.7 201.257 107.68 201.227 107.65 201.197 107.63 201.177 106.936 200.483 105.845 200.275 105.022 200.215 103.385 200.116 102.334 200.771 101.748 201.336 100.36 202.675 100.34 204.589 100.35 204.966 100.35 205.125 100.38 205.294 100.419 205.452L100.915 207.228C100.3 207.843 99.5168 208.656 99.1498 209.112 98.2175 210.273 98.1282 212.485 98.158 213.714L98.158 248.072C98.158 248.102 98.158 248.132 98.158 248.152 98.2373 250.056 99.5367 251.99 101.877 251.99L117.916 251.99C117.945 251.99 117.965 251.99 117.995 251.99 118.025 251.99 118.045 251.99 118.074 251.99L134.113 251.99C136.443 251.99 137.753 250.056 137.832 248.152 137.832 248.122 137.832 248.092 137.832 248.072L137.832 213.724C137.862 212.485 137.773 210.273 136.84 209.122ZM133.865 213.645C133.865 213.665 133.865 213.685 133.865 213.695L133.865 247.993C133.865 248.003 133.865 248.023 133.855 248.033L118.084 248.033C118.055 248.033 118.025 248.033 118.005 248.033 117.975 248.033 117.955 248.033 117.926 248.033L102.135 248.033C102.135 248.013 102.125 248.003 102.125 247.993L102.125 213.695C102.125 213.675 102.125 213.665 102.125 213.645 102.106 212.941 102.185 211.889 102.314 211.513 102.74 211.017 103.871 209.866 104.536 209.211 105.051 208.706 105.25 207.962 105.051 207.267L104.327 204.689C104.357 204.461 104.436 204.242 104.486 204.193 104.486 204.193 104.555 204.163 104.754 204.173 104.793 204.173 104.843 204.183 104.893 204.193 105.151 204.629 105.518 205.313 105.815 205.899 106.083 206.424 106.569 206.811 107.144 206.93 107.719 207.059 108.315 206.93 108.781 206.563 108.81 206.543 112.084 204.123 117.926 204.123 117.945 204.123 117.965 204.123 117.985 204.123 118.005 204.123 118.025 204.123 118.045 204.123 123.897 204.123 127.16 206.543 127.18 206.553 127.646 206.92 128.251 207.049 128.826 206.93 129.401 206.801 129.897 206.424 130.165 205.899 130.463 205.313 130.83 204.619 131.078 204.183 131.127 204.173 131.177 204.173 131.216 204.163 131.246 204.163 131.266 204.163 131.296 204.163 131.425 204.163 131.474 204.183 131.474 204.183 131.534 204.242 131.613 204.461 131.643 204.689L130.919 207.267C130.721 207.962 130.919 208.706 131.435 209.211 132.089 209.856 133.23 211.007 133.656 211.513 133.795 211.87 133.885 212.861 133.865 213.645Z" fill="#FFFFFF"/></g></svg>